<?xml version="1.0" ?><svg data-name="012" id="_012" viewBox="0 0 128 128" xmlns="http://www.w3.org/2000/svg"><defs><style>.cls-1,.cls-14,.cls-21,.cls-27,.cls-5,.cls-7,.cls-9{opacity:0.3;}.cls-2{fill:#95bfff;}.cls-3{fill:#6d6da8;}.cls-4{fill:#919dc4;}.cls-16,.cls-19,.cls-29,.cls-5{fill:#fff;}.cls-6{fill:#ecf4ff;}.cls-7{fill:#768ea6;}.cls-8{fill:#ff9595;}.cls-9{fill:#d94962;}.cls-10{fill:#d4b3ae;}.cls-11{fill:#9cb0ca;}.cls-12{fill:#94d5ff;}.cls-13{fill:#c5e7ff;}.cls-14{fill:#1c64b8;}.cls-15{fill:#afefa6;}.cls-16,.cls-24,.cls-29{opacity:0.5;}.cls-17{fill:#d2ebff;}.cls-18{fill:#fff07d;}.cls-20,.cls-21{fill:#5cbcff;}.cls-22{fill:#f9e2dc;}.cls-23,.cls-27{fill:#cc7e54;}.cls-25{fill:#6d6daa;}.cls-26{fill:#4c5a7f;}.cls-28{fill:#97c1ff;}.cls-28,.cls-29,.cls-30{fill-rule:evenodd;}.cls-30{fill:#2c4b75;opacity:0.2;}</style></defs><title/><g class="cls-1"><path class="cls-2" d="M116,48A39,39,0,1,0,38.93,36,20.59,20.59,0,0,1,23.54,52.71a30.75,30.75,0,1,0,22,57c7.6-4,17-2.68,22.63,3.83A33.75,33.75,0,0,0,121.6,72.44,33.65,33.65,0,0,1,116,48Z"/><path class="cls-3" d="M124.12,126H124a1,1,0,0,1,0-2h.12a1,1,0,0,1,0,2Z"/><path class="cls-3" d="M4,126H3a1,1,0,0,1,0-2H4a1,1,0,0,1,0,2Z"/><path class="cls-3" d="M121,126H7a1,1,0,0,1,0-2H121a1,1,0,0,1,0,2Z"/><polygon class="cls-4" points="64.5 59 24 77 24 83 30 83 30 80 64.5 65 99 80 99 83 105 83 105 77 64.5 59"/><polygon class="cls-5" points="64.5 59 24 77 24 80 64.5 62 105 80 105 77 64.5 59"/><polygon class="cls-6" points="64.5 65 30 80 30 119 99 119 99 80 64.5 65"/><polygon class="cls-7" points="64.5 65 30 80 30 84 64.5 69 99 84 99 80 64.5 65"/><path class="cls-3" d="M99,120H30a1,1,0,0,1-1-1V80a1,1,0,0,1,.6-.92l34.5-15a1,1,0,0,1,.8,0l34.5,15a1,1,0,0,1,.6.92v39A1,1,0,0,1,99,120Zm-68-2H98V80.66L64.5,66.09,31,80.66Z"/><path class="cls-3" d="M105,84H99a1,1,0,0,1-1-1V80.66L64.5,66.09,31,80.66V83a1,1,0,0,1-1,1H24a1,1,0,0,1-1-1V77a1,1,0,0,1,.59-.91l40.5-18a1,1,0,0,1,.82,0l40.5,18A1,1,0,0,1,106,77v6A1,1,0,0,1,105,84Zm-5-2h4V77.65L64.5,60.09,25,77.65V82h4V80a1,1,0,0,1,.6-.92l34.5-15a1,1,0,0,1,.8,0l34.5,15a1,1,0,0,1,.6.92Z"/><polygon class="cls-8" points="97 64 97 73.44 89 69.89 89 64 97 64"/><path class="cls-3" d="M97,74.44a1,1,0,0,1-.41-.08l-8-3.56a1,1,0,0,1-.59-.91V64a1,1,0,0,1,1-1h8a1,1,0,0,1,1,1v9.44a1,1,0,0,1-.46.84A1,1,0,0,1,97,74.44Zm-7-5.2,6,2.67V65H90Z"/><rect class="cls-8" height="3" width="10" x="88" y="61"/><path class="cls-3" d="M98,65H88a1,1,0,0,1-1-1V61a1,1,0,0,1,1-1H98a1,1,0,0,1,1,1v3A1,1,0,0,1,98,65Zm-9-2h8V62H89Z"/><rect class="cls-8" height="4" width="12" x="87" y="57"/><path class="cls-3" d="M99,62H87a1,1,0,0,1-1-1V57a1,1,0,0,1,1-1H99a1,1,0,0,1,1,1v4A1,1,0,0,1,99,62ZM88,60H98V58H88Z"/><rect class="cls-8" height="30" width="21" x="54" y="89"/><rect class="cls-9" height="3" width="21" x="54" y="89"/><path class="cls-3" d="M75,120H54a1,1,0,0,1-1-1V89a1,1,0,0,1,1-1H75a1,1,0,0,1,1,1v30A1,1,0,0,1,75,120Zm-20-2H74V90H55Z"/><path class="cls-3" d="M61,106H58a1,1,0,0,1,0-2h3a1,1,0,0,1,0,2Z"/><rect class="cls-10" height="6" width="69" x="30" y="119"/><path class="cls-3" d="M99,126H30a1,1,0,0,1-1-1v-6a1,1,0,0,1,1-1H99a1,1,0,0,1,1,1v6A1,1,0,0,1,99,126Zm-68-2H98v-4H31Z"/><rect class="cls-11" height="3" width="21" x="54" y="119"/><path class="cls-3" d="M75,123H54a1,1,0,0,1-1-1v-3a1,1,0,0,1,1-1H75a1,1,0,0,1,1,1v3A1,1,0,0,1,75,123Zm-20-2H74v-1H55Z"/><rect class="cls-11" height="3" width="21" x="54" y="122"/><path class="cls-3" d="M75,126H54a1,1,0,0,1-1-1v-3a1,1,0,0,1,1-1H75a1,1,0,0,1,1,1v3A1,1,0,0,1,75,126Zm-20-2H74v-1H55Z"/><rect class="cls-12" height="15" width="12" x="81" y="89"/><polygon class="cls-13" points="93 94 93 89 81 89 81 99.4 93 94"/><polygon class="cls-13" points="81 103.4 93 98 93 96 81 101.4 81 103.4"/><rect class="cls-14" height="3" width="12" x="81" y="89"/><path class="cls-3" d="M93,105H81a1,1,0,0,1-1-1V89a1,1,0,0,1,1-1H93a1,1,0,0,1,1,1v15A1,1,0,0,1,93,105Zm-11-2H92V90H82Z"/><path class="cls-3" d="M94.5,105h-15a1,1,0,0,1,0-2h15a1,1,0,0,1,0,2Z"/><path class="cls-3" d="M93,96H81a1,1,0,0,1,0-2H93a1,1,0,0,1,0,2Z"/><path class="cls-15" d="M37.5,119a4.4,4.4,0,0,0-1.67.33A4.48,4.48,0,0,0,29,116.78a7.47,7.47,0,0,0-13.37.78c-.2,0-.4-.06-.6-.06a6,6,0,0,0-6,6V125H42v-1.5A4.5,4.5,0,0,0,37.5,119Z"/><path class="cls-16" d="M37.5,119a4.4,4.4,0,0,0-1.67.33A4.48,4.48,0,0,0,29,116.78a7.47,7.47,0,0,0-13.37.78c-.2,0-.4-.06-.6-.06a6,6,0,0,0-6,6V125h.2a6,6,0,0,1,5.8-4.5c.2,0,.4,0,.6.06A7.47,7.47,0,0,1,29,119.78a4.48,4.48,0,0,1,6.86,2.55A4.4,4.4,0,0,1,37.5,122a4.48,4.48,0,0,1,4.22,3H42v-1.5A4.5,4.5,0,0,0,37.5,119Z"/><path class="cls-3" d="M42,126H9a1,1,0,0,1-1-1v-1.5a7,7,0,0,1,7-7h0a8.46,8.46,0,0,1,14.3-1,5.47,5.47,0,0,1,7.13,2.65A5.48,5.48,0,0,1,43,123.5V125A1,1,0,0,1,42,126Zm-32-2H41v-.5a3.5,3.5,0,0,0-3.5-3.5,3.47,3.47,0,0,0-1.3.26,1,1,0,0,1-.82,0,1,1,0,0,1-.52-.63,3.48,3.48,0,0,0-5.32-2,1,1,0,0,1-.79.15,1,1,0,0,1-.64-.47A6.42,6.42,0,0,0,22.5,114a6.49,6.49,0,0,0-6,4,1,1,0,0,1-1,.61l-.23,0a1.24,1.24,0,0,0-.27,0,5,5,0,0,0-5,5Z"/><path class="cls-3" d="M24.17,120.13a1,1,0,0,1-.59-.2,1.72,1.72,0,0,0-2.23-.19,1,1,0,0,1-1.38-.32,1,1,0,0,1,.31-1.37,3.74,3.74,0,0,1,4.49.27,1,1,0,0,1,.21,1.4A1,1,0,0,1,24.17,120.13Z"/><path class="cls-4" d="M112,123v2h6v-2a1,1,0,0,0-1-1h-4A1,1,0,0,0,112,123Z"/><path class="cls-3" d="M118,126h-6a1,1,0,0,1-1-1v-2a2,2,0,0,1,2-2h4a2,2,0,0,1,2,2v2A1,1,0,0,1,118,126Zm-5-2h4v-1h-4Z"/><rect class="cls-17" height="8" width="14" x="109.01" y="99"/><path class="cls-3" d="M123,108H109a1,1,0,0,1-1-1V99a1,1,0,0,1,1-1h14a1,1,0,0,1,1,1v8A1,1,0,0,1,123,108Zm-13-2h12v-6H110Z"/><rect class="cls-18" height="3" width="3" x="106.01" y="104"/><path class="cls-3" d="M109,108h-3a1,1,0,0,1-1-1v-3a1,1,0,0,1,1-1h3a1,1,0,0,1,1,1v3A1,1,0,0,1,109,108Zm-2-2h1v-1h-1Z"/><path class="cls-3" d="M109,108h-6a1,1,0,1,1,0-2h6a1,1,0,0,1,0,2Z"/><circle class="cls-6" cx="119.01" cy="103" r="1.5"/><path class="cls-3" d="M119,105.5a2.5,2.5,0,1,1,2.5-2.5A2.5,2.5,0,0,1,119,105.5Zm0-3a.5.5,0,1,0,0,1,.5.5,0,0,0,0-1Z"/><path class="cls-3" d="M112,108a1,1,0,0,1-1-1V99a1,1,0,0,1,2,0v8A1,1,0,0,1,112,108Z"/><path class="cls-3" d="M119,102.5a1,1,0,0,1-1-1v-6a1,1,0,0,1,2,0v6A1,1,0,0,1,119,102.5Z"/><polygon class="cls-8" points="125.51 90.5 119.01 90.5 119.01 95.5 125.51 95.5 124.01 93 125.51 90.5"/><path class="cls-3" d="M125.51,96.5H119a1,1,0,0,1-1-1v-5a1,1,0,0,1,1-1h6.5a1,1,0,0,1,.87.51,1,1,0,0,1,0,1l-1.19,2,1.19,2a1,1,0,0,1,0,1A1,1,0,0,1,125.51,96.5Zm-5.5-2h3.74l-.59-1a1,1,0,0,1,0-1l.59-1H120Z"/><path class="cls-3" d="M115,123a1,1,0,0,1-1-1V107a1,1,0,0,1,2,0v15A1,1,0,0,1,115,123Z"/><path class="cls-15" d="M89,121a3.19,3.19,0,0,1,1.12.22A3,3,0,0,1,93,119a3,3,0,0,1,1.68.52,5,5,0,0,1,8.92.52c.13,0,.26,0,.4,0a4,4,0,0,1,4,4v1H86v-1A3,3,0,0,1,89,121Z"/><path class="cls-3" d="M108,126H86a1,1,0,0,1-1-1v-1a4,4,0,0,1,4-4,4.73,4.73,0,0,1,.53,0A4,4,0,0,1,93,118a3.94,3.94,0,0,1,1.36.24,6,6,0,0,1,9.84.77,5,5,0,0,1,4.8,5v1A1,1,0,0,1,108,126Zm-21-2h20a3,3,0,0,0-3-3l-.13,0-.17,0a1,1,0,0,1-1-.6,4,4,0,0,0-7.13-.42,1,1,0,0,1-.64.48,1,1,0,0,1-.79-.15A2,2,0,0,0,93,120a2,2,0,0,0-1.92,1.48,1,1,0,0,1-1.34.67A2,2,0,0,0,87,124Z"/><path class="cls-3" d="M97.88,122.12a1,1,0,0,1-.6-1.8,2.79,2.79,0,0,1,3.37-.2,1,1,0,1,1-1.07,1.69c-.33-.21-.61-.25-1.11.11A1,1,0,0,1,97.88,122.12Z"/><rect class="cls-12" height="15" width="12" x="36" y="89"/><polygon class="cls-13" points="48 94 48 89 36 89 36 99.4 48 94"/><polygon class="cls-13" points="36 103.4 48 98 48 96 36 101.4 36 103.4"/><rect class="cls-14" height="3" width="12" x="36" y="89"/><path class="cls-3" d="M48,105H36a1,1,0,0,1-1-1V89a1,1,0,0,1,1-1H48a1,1,0,0,1,1,1v15A1,1,0,0,1,48,105Zm-11-2H47V90H37Z"/><path class="cls-3" d="M49.5,105h-15a1,1,0,0,1,0-2h15a1,1,0,0,1,0,2Z"/><path class="cls-3" d="M48,96H36a1,1,0,0,1,0-2H48a1,1,0,0,1,0,2Z"/><path class="cls-6" d="M8.77,53a8.26,8.26,0,0,1-.26-2,8,8,0,0,1,12.14-6.83,10.48,10.48,0,0,1,18.8,5.25A7.49,7.49,0,0,1,37,64H9a5.5,5.5,0,0,1-.24-11Z"/><path class="cls-19" d="M8.77,56a8.41,8.41,0,0,1-.26-2,7.73,7.73,0,0,1,.06-1A5.48,5.48,0,0,0,3.51,58.5,5.56,5.56,0,0,0,3.73,60,5.47,5.47,0,0,1,8.77,56Z"/><path class="cls-19" d="M16.51,46a7.92,7.92,0,0,1,4.14,1.17,10.48,10.48,0,0,1,18.8,5.25A7.51,7.51,0,0,1,44.35,58a7.81,7.81,0,0,0,.16-1.54,7.5,7.5,0,0,0-5.06-7.08,10.48,10.48,0,0,0-18.8-5.25A8,8,0,0,0,8.51,51a7.67,7.67,0,0,0,.15,1.45A8,8,0,0,1,16.51,46Z"/><path class="cls-20" d="M8.77,50c0-.18-.07-.37-.11-.56a5.58,5.58,0,0,0-.09.59A1.38,1.38,0,0,0,8.77,50Z"/><path class="cls-21" d="M37,61H9a5.49,5.49,0,0,1-5.28-4,5.43,5.43,0,0,0-.22,1.46A5.5,5.5,0,0,0,9,64H37a7.5,7.5,0,0,0,7.5-7.5A7.86,7.86,0,0,0,44.35,55,7.51,7.51,0,0,1,37,61Z"/><path class="cls-3" d="M37,65H9A6.5,6.5,0,0,1,7.59,52.16,7.54,7.54,0,0,1,7.51,51,9,9,0,0,1,20.4,42.9a11.49,11.49,0,0,1,20,5.8A8.5,8.5,0,0,1,37,65ZM16.51,44a7,7,0,0,0-7,7,7.15,7.15,0,0,0,.23,1.76,1,1,0,0,1-.16.85,1,1,0,0,1-.77.4A4.5,4.5,0,0,0,9,63H37a6.5,6.5,0,0,0,2.11-12.64,1,1,0,0,1-.66-.84,9.5,9.5,0,0,0-17-4.75,1,1,0,0,1-1.31.25A7,7,0,0,0,16.51,44Z"/><path class="cls-3" d="M39,54.75a.87.87,0,0,1-.31,0A1,1,0,0,1,38,53.44a9.38,9.38,0,0,0,.47-2.94A9.52,9.52,0,0,0,29,41a1,1,0,0,1,0-2,11.51,11.51,0,0,1,11.5,11.5,11.24,11.24,0,0,1-.57,3.56A1,1,0,0,1,39,54.75Z"/><path class="cls-3" d="M12.63,55.37a1,1,0,0,1-.66-.25A4.49,4.49,0,0,0,9,54a1,1,0,1,1,0-2,6.55,6.55,0,0,1,4.28,1.61A1,1,0,0,1,13.38,55,1,1,0,0,1,12.63,55.37Z"/><path class="cls-3" d="M23,47.34a1,1,0,0,1-.81-.41A7,7,0,0,0,16.51,44a1,1,0,0,1,0-2,9,9,0,0,1,7.31,3.76,1,1,0,0,1-.23,1.4A1,1,0,0,1,23,47.34Z"/><path class="cls-6" d="M123.75,61.66c0-.21,0-.43,0-.66a6,6,0,0,0-11.66-2.11,3.25,3.25,0,0,0-2-.69,3.21,3.21,0,0,0-3.21,3.2,2.44,2.44,0,0,0,0,.27A4.8,4.8,0,0,0,108.52,71h13.66a4.8,4.8,0,0,0,1.57-9.34Z"/><path class="cls-19" d="M123.75,63.66c0-.21,0-.43,0-.66a6,6,0,0,0-11.66-2.11,3.25,3.25,0,0,0-2-.69,3.21,3.21,0,0,0-3.21,3.2,2.44,2.44,0,0,0,0,.27,4.81,4.81,0,0,0-3.11,3.55,4.91,4.91,0,0,1-.12-1,4.81,4.81,0,0,1,3.23-4.53,2.44,2.44,0,0,1,0-.27,3.21,3.21,0,0,1,3.21-3.2,3.25,3.25,0,0,1,2,.69A6,6,0,0,1,123.79,61c0,.22,0,.45,0,.66A4.81,4.81,0,0,1,127,66.2a4.9,4.9,0,0,1-.11,1A4.84,4.84,0,0,0,123.75,63.66Z"/><path class="cls-21" d="M108.52,69h13.66a4.82,4.82,0,0,0,4.71-3.78,5.25,5.25,0,0,1,.11,1,4.81,4.81,0,0,1-4.82,4.8H108.52a4.81,4.81,0,0,1-4.82-4.8,4.53,4.53,0,0,1,.12-1A4.81,4.81,0,0,0,108.52,69Z"/><path class="cls-3" d="M122.18,72H108.52a5.79,5.79,0,0,1-2.59-11,4.22,4.22,0,0,1,4.2-3.81,4.13,4.13,0,0,1,1.56.3,7,7,0,0,1,13.1,3.5v0a5.79,5.79,0,0,1-2.61,11ZM110.13,59.2a2.21,2.21,0,0,0-2.21,2.2,1.21,1.21,0,0,0,0,.19,1,1,0,0,1-.67,1A3.79,3.79,0,0,0,108.52,70h13.66a3.79,3.79,0,0,0,1.24-7.39,1,1,0,0,1-.67-1.06,4.91,4.91,0,0,0,0-.55,5,5,0,0,0-9.73-1.75,1,1,0,0,1-1.55.43A2.25,2.25,0,0,0,110.13,59.2Z"/><path class="cls-6" d="M122.18,61.4a4.85,4.85,0,0,1,1.58.26"/><path class="cls-3" d="M123.76,62.66a1,1,0,0,1-.33,0,3.77,3.77,0,0,0-1.25-.21,1,1,0,0,1,0-2,5.89,5.89,0,0,1,1.91.32,1,1,0,0,1-.33,1.94Z"/><path class="cls-6" d="M106.93,61.67a4.66,4.66,0,0,1,1.59-.27"/><path class="cls-3" d="M106.93,62.67a1,1,0,0,1-.33-1.94,5.66,5.66,0,0,1,1.92-.33,1,1,0,0,1,0,2,3.83,3.83,0,0,0-1.26.21A1,1,0,0,1,106.93,62.67Z"/><path class="cls-6" d="M112.1,58.88a3.15,3.15,0,0,1,.88,1"/><path class="cls-3" d="M113,60.92a1,1,0,0,1-.89-.54,2.15,2.15,0,0,0-.6-.71,1,1,0,1,1,1.23-1.59,4.18,4.18,0,0,1,1.14,1.37,1,1,0,0,1-.42,1.35A.93.93,0,0,1,113,60.92Z"/><path class="cls-19" d="M9,88a1,1,0,0,1-.71-.3A1,1,0,0,1,8,87a1,1,0,0,1,.08-.38.93.93,0,0,1,.21-.33,1.58,1.58,0,0,1,.15-.12.76.76,0,0,1,.18-.09A.64.64,0,0,1,8.8,86a1,1,0,0,1,.58.06,1.15,1.15,0,0,1,.33.21.93.93,0,0,1,.21.33A1,1,0,0,1,10,87a1,1,0,0,1-.29.7A1,1,0,0,1,9,88Z"/><path class="cls-19" d="M17,92H11a1,1,0,0,1,0-2h6a1,1,0,0,1,0,2Z"/><path class="cls-19" d="M20,88H13a1,1,0,0,1,0-2h7a1,1,0,0,1,0,2Z"/><path class="cls-19" d="M23,92H21a1,1,0,0,1,0-2h2a1,1,0,0,1,0,2Z"/><path class="cls-19" d="M21,96H13a1,1,0,0,1,0-2h8a1,1,0,0,1,0,2Z"/><path class="cls-19" d="M104.51,88a.85.85,0,0,1-.39-.08,1,1,0,0,1-.61-.92,1,1,0,0,1,.29-.71,1,1,0,0,1,.32-.21,1,1,0,0,1,.77,0,1,1,0,0,1,.32.21,1,1,0,0,1,.3.71,1,1,0,0,1-.3.71A1,1,0,0,1,104.51,88Z"/><path class="cls-19" d="M105.51,84h-2a1,1,0,1,1,0-2h2a1,1,0,0,1,0,2Z"/><path class="cls-19" d="M110.51,80h-10a1,1,0,1,1,0-2h10a1,1,0,0,1,0,2Z"/><path class="cls-19" d="M113.51,84h-4a1,1,0,1,1,0-2h4a1,1,0,0,1,0,2Z"/><path class="cls-19" d="M116.51,88h-8a1,1,0,1,1,0-2h8a1,1,0,0,1,0,2Z"/></g><path class="cls-22" d="M46.06,8.94l13.77,1.41,0,.11c-1.72.53-3.81,1.21-5.91,1.91L43.3,13.1l-6.54,3.45-.1-.19a3.46,3.46,0,0,1-3.34-4.19Z"/><path class="cls-16" d="M46.06,8.94l13.77,1.41,0,.11c-1.72.53-2.07.73-4.18,1.43l-10.52-.42S34.39,15.68,33.91,15a4.09,4.09,0,0,1-.59-2.84Z"/><path class="cls-22" d="M36.76,16.55,43.3,13.1,54,12.37c-5.12,1.71-10.29,3.53-10.29,3.53L31.84,24.53l-1,1.24-.19-.16-2.12.05c-3.61.47-3.18-3.08-3.18-3.08Z"/><path class="cls-16" d="M36.76,16.55,43.3,13.1,54,12.37c-5.12,1.71-10.29,3.53-10.29,3.53-6.21,3.39-12.75,5.89-15.15,9.76-3.61.47-3.18-3.08-3.18-3.08Z"/><path class="cls-22" d="M109.59,17.23c-.15,0-7.83.4-9.27.4S69,10.08,66.3,10.08a31,31,0,0,0-4.81.95c-2.08.52-4.58,1.19-7,1.87-5.43,1.49-10.61,3-10.61,3l-11.8,8.66-1,1.24-6,7.41s1.94,2.6,6,1.1c4.48-1.63,8-4.85,8.41-6.58,3-.82,6.36-1.84,8.17-3.93L52,22.71l0,0c-2.91,3-6,6.28-7.28,7.23-1,.76-.7,8.66-1.55,11.4-.39,1.28,10.46,9.94,10.46,9.94A3.29,3.29,0,0,0,54.82,50a5.49,5.49,0,0,0,0-4.47,14.79,14.79,0,0,0-3.87-5.69,10.16,10.16,0,0,0,2.13-6.76c2.93-.84,5.25-2.47,9.11-5.94a32,32,0,0,0,9,.88c1.77,2.94,3.67,6,3.71,9a10,10,0,0,1-.17,2.06l34.89-15.56Z"/><g class="cls-1"><path class="cls-23" d="M56.91,17.71,46.64,21.14c-1.8,2.09-5.73,3.76-8.73,4.58-.44,1.73-4.41,6.21-8.89,7.84a6,6,0,0,1-4-.33s1.94,2.6,6,1.1c4.48-1.63,8-4.85,8.41-6.58,2.48-.68,6.45-1.92,8.16-3.69.58-.56,2.65-.71,4.36-1.35C54.2,20.42,55.72,19,56.91,17.71Z"/><path class="cls-23" d="M71.38,22.63s-5.19,2.65-10.27,1c-3.86,3.48-6.46,6.8-9.94,8.23a19.8,19.8,0,0,0-1.05,7.73s.38-.63,1.1.22a22.49,22.49,0,0,0,1.85-6.7c2.93-.84,5.25-2.47,9.11-5.94a32,32,0,0,0,9,.88c1.47,2.46,3.64,6.41,4.25,10.05a22.22,22.22,0,0,1,4.27-5.23C75.13,29.26,73.15,25.57,71.38,22.63Z"/><path class="cls-23" d="M55.19,48.93c-.59-.64-1.76.15-1.76.15s-7.62-6.63-9.79-10.31a14.73,14.73,0,0,1-.44,2.61c-.39,1.28,10.46,9.94,10.46,9.94A3.29,3.29,0,0,0,54.82,50,3.76,3.76,0,0,0,55.19,48.93Z"/></g><g class="cls-24"><path class="cls-19" d="M59.16,18.84c.42-.9,0-2.12-2-1.4l-9.53,9.91a7.16,7.16,0,0,1-1.07,1c-.77.74-1.4,1.33-1.82,1.65-1,.76-.7,8.66-1.55,11.4-.05.18.12.5.44.92C44,38.87,47,31,47.74,30.36,51.39,28.69,58.11,21.05,59.16,18.84Z"/><path class="cls-19" d="M100.32,17.63c-1.43,0-31.37-7.55-34-7.55a31,31,0,0,0-4.81.95c-2.08.52-4.58,1.19-7,1.87-5.43,1.49-10.61,3-10.61,3l-11.8,8.66-1,1.24-6,7.41a4.28,4.28,0,0,0,1.84,1.26s5.42-5.11,6-5.93a2.43,2.43,0,0,0,.44-1.84c5.15-2.95,8.76-5.26,11.19-8.18,3.46-.22,18.79-3.84,21.36-5.45,2.79.59,30,8.55,33.43,8.47,3.24-.07,10.15-.8,10.3-.79V17.23C109.44,17.23,101.76,17.63,100.32,17.63Z"/></g><path class="cls-25" d="M28.63,35.81a5.58,5.58,0,0,1-4.39-2,1,1,0,0,1,0-1.23l7-8.64a.77.77,0,0,1,.18-.18l11.8-8.66a1.11,1.11,0,0,1,.31-.15c2-.6,20-5.88,22.73-5.88,1.53,0,9.79,1.93,21.31,4.66,5.91,1.4,12,2.84,12.73,2.89s2.17-.09,3.81-.18c1.95-.12,4-.23,5-.23a36.46,36.46,0,0,1,5.63.93l5.54-1a1,1,0,0,1,1.16.81,1,1,0,0,1-.81,1.16l-5.74,1a1.13,1.13,0,0,1-.41,0,37,37,0,0,0-5.37-.93c-1,0-3.05.12-4.88.22-1.67.1-3.25.19-4,.19s-4.14-.81-13.17-2.95c-8.21-1.94-19.44-4.6-20.85-4.6-1.82,0-14.09,3.42-22,5.75L32.75,25.31l-6.34,7.82a4.53,4.53,0,0,0,4.31.27c4.55-1.67,7.48-4.72,7.78-5.89a1,1,0,0,1,.7-.72c3-.83,6.1-1.79,7.68-3.63a1,1,0,0,1,.51-.32l4.36-1.1a1,1,0,0,1,.49,1.94l-4.06,1c-1.88,2-4.92,3-8,3.87-1,2.12-4.5,5.11-8.82,6.7A8.1,8.1,0,0,1,28.63,35.81Z"/><path class="cls-25" d="M53.66,52.32A1,1,0,0,1,53,52.1C41.65,43,42,41.76,42.25,41.09a32,32,0,0,0,.63-5.58c.25-4.09.43-5.7,1.26-6.33,1.15-.87,4.2-4,6.89-6.83,2.3-2.39,4.48-4.65,5.63-5.66a1,1,0,0,1,1.41.09A1,1,0,0,1,58,18.19c-1.09.95-3.23,3.19-5.51,5.55-2.81,2.92-5.72,5.94-7,7a26.19,26.19,0,0,0-.56,4.92,34.88,34.88,0,0,1-.64,5.8c.67,1.17,5.19,5.18,9.41,8.59.48-.58,1-1.83.23-4.13a13.81,13.81,0,0,0-3.58-5.27,1,1,0,0,1-.16-1.34,9.13,9.13,0,0,0,1.94-6.19,1,1,0,0,1,.73-1c2.61-.75,4.73-2.14,8.71-5.72a1,1,0,0,1,.93-.23A30.6,30.6,0,0,0,71.1,27a1,1,0,0,1,1.06.94A1,1,0,0,1,71.23,29a32.93,32.93,0,0,1-8.78-.78c-3.17,2.82-5.56,4.61-8.39,5.58a10.53,10.53,0,0,1-1.81,5.88,15.67,15.67,0,0,1,3.5,5.5c1.77,5-1.46,6.9-1.6,7A1,1,0,0,1,53.66,52.32Z"/><path class="cls-25" d="M28.09,26.76a3.43,3.43,0,0,1-2.51-.93,4.22,4.22,0,0,1-1-3.31,1,1,0,0,1,.5-.75l18-10.06a1.14,1.14,0,0,1,.51-.13l10.89.22a1,1,0,1,1,0,2L43.8,13.58,26.53,23.23A1.93,1.93,0,0,0,27,24.41a1.9,1.9,0,0,0,1.61.32h.1l2.11-.06a1,1,0,0,1,1,1,1,1,0,0,1-1,1l-2.06.06A6,6,0,0,1,28.09,26.76Z"/><path class="cls-25" d="M36.77,17.4h-.09a4.63,4.63,0,0,1-3.45-1.7,5,5,0,0,1-.8-3.58,1,1,0,0,1,.73-.78L46,8a1,1,0,0,1,.38,0l15.09,2a1,1,0,0,1-.26,2L46.3,10,34.37,13.09a2.56,2.56,0,0,0,.46,1.41,2.72,2.72,0,0,0,2,.9,1,1,0,0,1-.09,2Z"/><path class="cls-25" d="M48.7,47.93a1,1,0,0,1-1-.79c-.14-.67-.5-2.89.91-3.56a1,1,0,0,1,1,1.73,3.84,3.84,0,0,0,0,1.41,1,1,0,0,1-.77,1.19Z"/><path class="cls-25" d="M39.47,28.75a1,1,0,0,1-.8-.4,4.15,4.15,0,0,1-.49-.81c0-.07-.08-.14-.32-.36a1,1,0,1,1,1.31-1.5,2.68,2.68,0,0,1,.84,1,2.2,2.2,0,0,0,.26.44,1,1,0,0,1-.21,1.4A1,1,0,0,1,39.47,28.75Z"/><path class="cls-25" d="M53.07,34.1h0a1,1,0,0,1-.94-.78l-.07,0a1,1,0,0,1-.72-1.21,1,1,0,0,1,1.21-.73,1.83,1.83,0,0,1,1.55,1.77A1,1,0,0,1,53.07,34.1Zm-.91-.75Zm-.09-.29h0Z"/><path class="cls-6" d="M68.22,90.47l1.42,1.42a2,2,0,0,0,2.82,0l7.08-7.07a2,2,0,0,0,0-2.83l-1.42-1.41Z"/><path class="cls-3" d="M71.05,93.47a3,3,0,0,1-2.12-.87l-1.42-1.42a1,1,0,0,1,0-1.41l9.9-9.9a1,1,0,0,1,1.42,0l1.41,1.41a3,3,0,0,1,0,4.25L73.17,92.6A3,3,0,0,1,71.05,93.47Zm-1.41-3,.7.71a1,1,0,0,0,1.42,0l7.07-7.07a1,1,0,0,0,0-1.41L78.12,82Z"/><path class="cls-2" d="M66.81,69.26l-9.9,9.9a4,4,0,0,0,0,5.66l5.65,5.65a4,4,0,0,0,5.66,0l9.9-9.89a4,4,0,0,0,0-5.66l-5.66-5.66A4,4,0,0,0,66.81,69.26Zm2.83,8.49L65.39,82a2,2,0,0,1-2.83-2.83l4.25-4.24a2,2,0,0,1,2.83,2.83Z"/><g class="cls-1"><path class="cls-26" d="M76,78.45l-9.9,9.9a4,4,0,0,1-5.66,0l2.12,2.12a4,4,0,0,0,5.66,0l9.9-9.89a4,4,0,0,0,0-5.66L76,72.8A4,4,0,0,1,76,78.45Z"/></g><g class="cls-1"><path class="cls-19" d="M66.81,69.26l-9.9,9.9a4,4,0,0,0,0,5.66L59,86.94a4,4,0,0,1,0-5.66l9.9-9.9a4,4,0,0,1,5.66,0l-2.13-2.12A4,4,0,0,0,66.81,69.26Z"/></g><path class="cls-3" d="M65.39,92.65a4.94,4.94,0,0,1-3.53-1.47L56.2,85.53a5,5,0,0,1,0-7.08l9.9-9.9a5,5,0,0,1,7.07,0l5.66,5.66a5,5,0,0,1,0,7.07l-9.9,9.9A5,5,0,0,1,65.39,92.65Zm4.25-23.56a3,3,0,0,0-2.13.88h0l-9.9,9.9a3,3,0,0,0,0,4.24l5.66,5.66a3.08,3.08,0,0,0,4.24,0l9.9-9.9a3,3,0,0,0,0-4.24L71.76,70A3,3,0,0,0,69.64,69.09Zm-2.83.17h0ZM64,83.57a3,3,0,0,1-2.12-5.12l4.24-4.24a3.08,3.08,0,0,1,4.24,0,3,3,0,0,1,0,4.24L66.1,82.7A3,3,0,0,1,64,83.57Zm4.24-8.24a1,1,0,0,0-.71.3l-4.24,4.24a1,1,0,0,0,0,1.41,1,1,0,0,0,1.42,0L68.93,77a1,1,0,0,0-.71-1.71Z"/><polygon class="cls-6" points="73.17 91.18 85.9 103.91 91.56 103.91 94.38 101.08 78.83 85.53 73.17 91.18"/><path class="cls-3" d="M91.56,104.91H85.9a1,1,0,0,1-.71-.29L72.46,91.89a1,1,0,0,1-.29-.71,1.05,1.05,0,0,1,.29-.71l5.66-5.65a1,1,0,0,1,1.42,0l15.55,15.55a1,1,0,0,1,0,1.42l-2.83,2.83A1,1,0,0,1,91.56,104.91Zm-5.25-2h4.83L93,101.08,78.83,86.94l-4.25,4.24Z"/><path class="cls-3" d="M87.31,100.67a1,1,0,0,1-.7-.3l-8.49-8.48a1,1,0,0,1,1.42-1.42L88,99a1,1,0,0,1-.71,1.71Z"/><path class="cls-3" d="M83.78,104.2a1,1,0,0,1-.71-.29,1,1,0,0,1,0-1.41l.71-.71a1,1,0,0,1,1.41,1.41l-.71.71A1,1,0,0,1,83.78,104.2Z"/><path class="cls-3" d="M78.12,98.55a1,1,0,0,1-.71-1.71l.71-.71a1,1,0,0,1,1.42,1.42l-.71.7A1,1,0,0,1,78.12,98.55Z"/><path class="cls-3" d="M75.29,95.72a1,1,0,0,1-.7-1.71l.7-.71a1,1,0,1,1,1.42,1.42l-.71.7A1,1,0,0,1,75.29,95.72Z"/><path class="cls-6" d="M51,91v2a2,2,0,0,0,2,2H63a2,2,0,0,0,2-2V91Z"/><path class="cls-3" d="M63,96H53a3,3,0,0,1-3-3V91a1,1,0,0,1,1-1H65a1,1,0,0,1,1,1v2A3,3,0,0,1,63,96ZM52,92v1a1,1,0,0,0,1,1H63a1,1,0,0,0,1-1V92Z"/><path class="cls-4" d="M65,75H51a4,4,0,0,0-4,4v8a4,4,0,0,0,4,4H65a4,4,0,0,0,4-4V79A4,4,0,0,0,65,75Zm-4,8H55a2,2,0,0,1,0-4h6a2,2,0,0,1,0,4Z"/><g class="cls-1"><path class="cls-26" d="M65,88H51a4,4,0,0,1-4-4v3a4,4,0,0,0,4,4H65a4,4,0,0,0,4-4V84A4,4,0,0,1,65,88Z"/></g><g class="cls-1"><path class="cls-19" d="M65,75H51a4,4,0,0,0-4,4v3a4,4,0,0,1,4-4H65a4,4,0,0,1,4,4V79A4,4,0,0,0,65,75Z"/></g><path class="cls-3" d="M65,92H51a5,5,0,0,1-5-5V79a5,5,0,0,1,5-5H65a5,5,0,0,1,5,5v8A5,5,0,0,1,65,92ZM51,76a3,3,0,0,0-3,3v8a3,3,0,0,0,3,3H65a3,3,0,0,0,3-3V79a3,3,0,0,0-3-3Zm10,8H55a3,3,0,0,1,0-6h6a3,3,0,0,1,0,6Zm-6-4a1,1,0,0,0,0,2h6a1,1,0,0,0,0-2Z"/><polygon class="cls-6" points="54 95 54 113 58 117 62 117 62 95 54 95"/><path class="cls-3" d="M62,118H58a1,1,0,0,1-.71-.29l-4-4A1,1,0,0,1,53,113V95a1,1,0,0,1,1-1h8a1,1,0,0,1,1,1v22A1,1,0,0,1,62,118Zm-3.59-2H61V96H55v16.59Z"/><path class="cls-3" d="M58,112a1,1,0,0,1-1-1V99a1,1,0,0,1,2,0v12A1,1,0,0,1,58,112Z"/><path class="cls-3" d="M54,112H53a1,1,0,0,1,0-2h1a1,1,0,0,1,0,2Z"/><path class="cls-3" d="M54,108H53a1,1,0,0,1,0-2h1a1,1,0,0,1,0,2Z"/><path class="cls-3" d="M54,104H53a1,1,0,0,1,0-2h1a1,1,0,0,1,0,2Z"/><path class="cls-3" d="M54,100H53a1,1,0,0,1,0-2h1a1,1,0,0,1,0,2Z"/><path class="cls-3" d="M68.12,77.5a1,1,0,0,1-.69-1.72,14.14,14.14,0,0,0,1.37-1.52,1,1,0,1,1,1.57,1.24,18,18,0,0,1-1.55,1.72A1,1,0,0,1,68.12,77.5Z"/><path class="cls-3" d="M57,82A17,17,0,1,1,74,65a16.81,16.81,0,0,1-.61,4.52A1,1,0,1,1,71.46,69a15,15,0,1,0-9.12,10,1,1,0,1,1,.72,1.87A16.9,16.9,0,0,1,57,82Z"/><path class="cls-25" d="M62.18,28.16a1,1,0,0,1-1-.9,1.77,1.77,0,0,0-.3-.8,1,1,0,1,1,1.56-1.25,3.8,3.8,0,0,1,.73,1.85,1,1,0,0,1-.89,1.09Z"/><path class="cls-22" d="M109.59,23.51V38.13l-5.4-.18c-2.65,0-3.21,2.24-9.17,5.23-3.51,1.75-7.55,2.55-9.5,4.5C83.86,49.34,80,49.51,78.78,50c-5.74,2.32-8.54,5.46-12,4.59C65,54,62,53.78,57.91,53.53c-2.54-.15-3.89-1.72-3-3.44a4,4,0,0,1,.9-1.11c2.68-2.42,8.09-4,10.86-2.36,2-2.78,7-2.55,8-7.55,1.59-1.59,2.53-4.29,5-6.21C86.73,27.34,98.56,25.84,109.59,23.51Z"/><path class="cls-27" d="M94.13,38.75c-3.51,1.75-7,3.68-8.94,5.64C83.53,46,79.86,46.55,78.67,47c-5.74,2.32-7.62,6.18-11.93,4.64-1.78-.63-5,.66-9.5.88-1,0-1.87.82.67,1,4.08.25,7.09.44,8.87,1.06,3.46.87,6.26-2.27,12-4.59,1.2-.49,5.08-.66,6.74-2.32,2-2,6-2.75,9.5-4.5,6-3,6.52-5.26,9.17-5.23l5.4.18V32l-5.4-.19C101.54,31.73,100.1,35.77,94.13,38.75Z"/><path class="cls-16" d="M66.7,50.16c1-1.37,4.93-3.67,8-5.77,2.36-1.62,9-7.79,7.07-11s-7,6.23-7.07,5.73c-1,5-6,4.77-8,7.55C63.93,45,58.52,46.56,55.84,49a4.28,4.28,0,0,0-.78.93,5.85,5.85,0,0,1,.13,2.55,2.49,2.49,0,0,0,.38.34,2.37,2.37,0,0,1,.27-.28C58.52,50.1,63.93,48.54,66.7,50.16Z"/><path class="cls-25" d="M74.84,40.31a1,1,0,0,1-.6-.21,1,1,0,0,1-.2-1.4c.73-1,1.26-1.81,1.77-2.63a13.8,13.8,0,0,1,3.25-4,1,1,0,0,1,1.41.15,1,1,0,0,1-.16,1.41,12.16,12.16,0,0,0-2.8,3.48,33.15,33.15,0,0,1-1.87,2.79A1,1,0,0,1,74.84,40.31Z"/><path class="cls-25" d="M62,54.53a1,1,0,0,1-.77-.36,1,1,0,0,1,.13-1.41h0c.57-.47,1.36-1.4,1.35-1.93a1,1,0,0,1,1-1,1,1,0,0,1,1,1c0,1.68-1.72,3.21-2.07,3.49A1,1,0,0,1,62,54.53Z"/><path class="cls-25" d="M86.89,47.6a1,1,0,0,1-.84-.46,1,1,0,0,1,.29-1.38,23.28,23.28,0,0,0,6.38-7,1,1,0,1,1,1.72,1,25,25,0,0,1-7,7.63A1.09,1.09,0,0,1,86.89,47.6Z"/><path class="cls-25" d="M68,55.74a5.55,5.55,0,0,1-1.43-.18c-1.77-.61-5-.8-8.69-1-2-.12-3.56-1-4.05-2.45a3.59,3.59,0,0,1,1.37-3.85c2.74-2.45,8-4.06,11.26-2.84a12,12,0,0,1,3.06-2c2.39-1.22,4.45-2.28,4.38-6.36,0-2.61-1.77-5.48-3.43-8.25l-.14-.22a1,1,0,1,1,1.72-1l.13.22c1.8,3,3.67,6.1,3.72,9.24.09,5.33-3,6.91-5.47,8.18a7.88,7.88,0,0,0-2.89,2,1,1,0,0,1-1.32.27c-2.35-1.37-7.29.09-9.69,2.24-.68.61-1,1.23-.81,1.7s1.11,1,2.28,1.12c4,.24,7.2.43,9.14,1.11,1.74.43,3.42-.51,6-1.92a45.92,45.92,0,0,1,5.35-2.66,11.81,11.81,0,0,1,1.87-.46c1.51-.29,3.59-.7,4.53-1.64,1.38-1.37,3.55-2.19,5.84-3.06a40.49,40.49,0,0,0,3.92-1.63A30.4,30.4,0,0,0,100,38.81c1.41-1.09,2.44-1.89,4.19-1.87l11.62.41a1,1,0,0,1,1,1,1,1,0,0,1-1,1l-11.6-.41h0c-1,0-1.61.46-2.89,1.45a31.94,31.94,0,0,1-5.77,3.68c-1.35.67-2.75,1.2-4.1,1.71-2.09.79-4.06,1.53-5.13,2.61-1.38,1.37-3.8,1.84-5.57,2.19a10.66,10.66,0,0,0-1.5.35A43.61,43.61,0,0,0,74,53.47C71.82,54.71,70,55.74,68,55.74Z"/><path class="cls-28" d="M111.94,46h9.75a3,3,0,0,0,2.91-2.52C127,29.33,127.05,22.07,127,15a3,3,0,0,0-2.94-3H111.94A3,3,0,0,0,109,15V43A3,3,0,0,0,111.94,46Z"/><path class="cls-29" d="M111.94,12h12.11A3,3,0,0,1,127,15c0,1.34,0,6.16,0,6a3,3,0,0,0-2.94-3H111.94A3,3,0,0,0,109,21V15A3,3,0,0,1,111.94,12Z"/><path class="cls-30" d="M124.6,43.48A3,3,0,0,1,121.69,46h-9.75A3,3,0,0,1,109,43V38a3,3,0,0,0,2.94,3h9.75a3,3,0,0,0,2.91-2.52Z"/><path class="cls-25" d="M121.69,47h-9.75A4,4,0,0,1,108,43V15a4,4,0,0,1,3.94-4h12.11A4,4,0,0,1,128,15a146.5,146.5,0,0,1-2.4,28.67A4,4,0,0,1,121.69,47Zm-9.75-34A2,2,0,0,0,110,15V43a2,2,0,0,0,1.94,2h9.75a2,2,0,0,0,1.92-1.69A144.28,144.28,0,0,0,126,15a2,2,0,0,0-1.94-2Z"/><path class="cls-25" d="M116.36,39.53a1,1,0,1,1,1-1v0A1,1,0,0,1,116.36,39.53Z"/></svg>